<?xml version="1.0" encoding="UTF-8"?>
<svg width="138px" height="55px" viewBox="0 0 138 55" version="1.1" xmlns="http://www.w3.org/2000/svg" xmlns:xlink="http://www.w3.org/1999/xlink">
    <!-- Generator: Sketch 52.2 (67145) - http://www.bohemiancoding.com/sketch -->
    <title>Group 20</title>
    <desc>Created with Sketch.</desc>
    <defs>
        <polygon id="path-1" points="0 0.0918862275 50.8931333 0.0918862275 50.8931333 54.8352305 0 54.8352305"></polygon>
    </defs>
    <g id="Page-1" stroke="none" stroke-width="1" fill="none" fill-rule="evenodd">
        <g id="Group-20">
            <path d="M33.0021167,29.0711886 L29.1452833,29.0711886 L26.99995,29.0711886 L26.99995,30.9130299 L29.1452833,30.9130299 L29.1452833,31.8633443 C29.1452833,33.0336587 28.18495,33.982491 27.0002833,33.982491 L26.99995,33.982491 L26.99995,35.8243323 L29.1452833,35.8243323 L29.1452833,36.7746467 C29.1452833,37.9451257 28.18495,38.8937934 27.0002833,38.8937934 L26.99995,38.8937934 L26.99995,47.5085389 C26.99995,47.9778503 27.5111167,48.2737635 27.92545,48.0438832 C30.67195,46.5188683 38.55545,42.0437784 38.55545,42.0437784 C37.03145,40.3641377 35.78895,38.4732246 34.8521167,36.3996916 C33.7996167,34.0700958 33.1796167,31.6112335 33.0021167,29.0711886" id="Fill-1" fill="#1A1A1A"></path>
            <path d="M37.68905,35.1483922 C38.5827167,37.1265808 39.8007167,38.9116108 41.3148833,40.4697246 L42.38705,39.8583024 C43.8243833,39.0384072 44.71705,37.5104281 44.71705,35.8706377 L44.71705,29.0712216 L36.1178833,29.0712216 C36.28955,31.1768653 36.81555,33.2151587 37.68905,35.1483922" id="Fill-3" fill="#1A1A1A"></path>
            <path d="M42.38705,15.2145644 L41.3148833,14.6031422 C39.8007167,16.161256 38.5827167,17.9461213 37.68905,19.9243099 C36.81555,21.8577081 36.28955,23.8960015 36.1178833,26.0016452 L44.71705,26.0016452 L44.71705,19.2020644 C44.71705,17.5624386 43.8243833,16.0344596 42.38705,15.2145644" id="Fill-5" fill="#1A1A1A"></path>
            <path d="M33.0021167,26.0016123 C33.1796167,23.4615674 33.7996167,21.0027051 34.8521167,18.6731093 C35.78895,16.5995763 37.03145,14.7086632 38.5556167,13.0290225 C38.5556167,13.0290225 30.67195,8.55376796 27.92545,7.02891766 C27.5111167,6.79903743 26.99995,7.0949506 26.99995,7.56442665 L26.99995,16.1788428 L29.1452833,16.1788428 L29.1452833,17.1291572 C29.1452833,18.2996362 28.18495,19.2484686 27.0002833,19.2484686 L26.99995,19.2484686 L26.99995,21.0901452 L29.1452833,21.0901452 L29.1452833,22.0406243 C29.1452833,23.2109386 28.18495,24.159771 27.0002833,24.159771 L26.99995,24.159771 L26.99995,26.0016123 L29.1452833,26.0016123 L33.0021167,26.0016123 Z" id="Fill-7" fill="#1A1A1A"></path>
            <path d="M18.1522667,28.3650644 C17.8847667,28.651756 17.4326,28.6698698 17.1426,28.4054087 L16.3861,27.716262 L15.6994333,28.4518458 C15.5584333,28.6028488 15.3666,28.679256 15.1739333,28.679256 C15.0007667,28.679256 14.8271,28.6175045 14.6896,28.4921901 C14.3996,28.2278937 14.3812667,27.7813069 14.6487667,27.4946153 L15.8199333,26.2399895 C16.0876,25.9532979 16.5396,25.9351841 16.8297667,26.1996452 L18.1114333,27.3674895 C18.4016,27.6317859 18.4197667,28.0785374 18.1522667,28.3650644 M17.8777667,31.0783428 C17.7436,31.1903189 17.5796,31.2451542 17.4167667,31.2451542 C17.2137667,31.2451542 17.0121,31.1601841 16.8707667,30.9950195 L16.2064333,30.2185973 L15.4329333,30.8649296 C15.1314333,31.1165464 14.6806,31.0791662 14.4259333,30.7816063 C14.1709333,30.4837171 14.2087667,30.0382829 14.5101,29.7866662 L15.8292667,28.6845254 C16.1307667,28.432744 16.5816,28.4701243 16.8362667,28.7676841 L17.9621,30.083238 C18.2169333,30.3809626 18.1792667,30.8263967 17.8777667,31.0783428 M17.2659333,33.7369506 C17.1454333,33.8146751 17.0101,33.851726 16.8762667,33.851726 C16.6427667,33.851726 16.4141,33.7389266 16.2771,33.5314416 L15.7149333,32.679765 L14.8664333,33.2264716 C14.5359333,33.4395554 14.0932667,33.3476692 13.8776,33.0207979 C13.6621,32.6944207 13.7552667,32.2568907 14.0857667,32.0439716 L15.5327667,31.1114416 C15.8634333,30.8985225 16.3059333,30.9904087 16.5216,31.3171153 L17.4741,32.7597949 C17.6897667,33.0865015 17.5966,33.5240314 17.2659333,33.7369506 M16.3261,36.3005434 C16.2251,36.3492859 16.1184333,36.3723398 16.0132667,36.3723398 C15.7486,36.3723398 15.4944333,36.2264416 15.3706,35.9758129 L14.9192667,35.0622201 L14.0091,35.5010674 C13.6541,35.6721602 13.2264333,35.5265913 13.0534333,35.1761722 C12.8804333,34.825753 13.0274333,34.4032081 13.3821,34.2321153 L14.9346,33.4835225 C15.1051,33.4013518 15.3016,33.3896602 15.4806,33.4504237 C15.6597667,33.5113518 15.8071,33.6401243 15.8902667,33.8084177 L16.6549333,35.3564865 C16.8279333,35.7069057 16.6807667,36.1296153 16.3261,36.3005434 M15.0727667,38.729765 C14.9961,38.7559476 14.9179333,38.7681332 14.8411,38.7681332 C14.5442667,38.7681332 14.2669333,38.5838668 14.1652667,38.290753 L13.8317667,37.3290763 L12.8734333,37.6533129 C12.5001,37.7797799 12.0936,37.5831632 11.9657667,37.2143009 C11.8379333,36.8454386 12.0369333,36.4439716 12.4101,36.3176692 L14.0444333,35.7645404 C14.4176,35.6380734 14.8241,35.8345254 14.9519333,36.2035524 L15.5171,37.8331332 C15.6451,38.2018308 15.4461,38.6034626 15.0727667,38.729765 M13.5249333,40.987235 C13.4757667,40.9974446 13.4264333,41.0023847 13.3781,41.0023847 C13.0469333,41.0023847 12.7497667,40.7736572 12.6794333,40.4406931 L12.4687667,39.4455883 L11.4772667,39.6504386 C11.0907667,39.7304686 10.7122667,39.4856033 10.6314333,39.1038967 C10.5507667,38.7221901 10.7984333,38.3482231 11.1847667,38.2683578 L12.8756,37.9190913 C13.2621,37.839226 13.6406,38.0839266 13.7214333,38.4656332 L14.0782667,40.1516961 C14.1591,40.5334027 13.9112667,40.9075344 13.5249333,40.987235 M11.1356,16.7365165 L11.3514333,15.0430434 C11.3751,14.8572949 11.4724333,14.6883428 11.6222667,14.5735674 C11.7719333,14.4587919 11.9612667,14.40725 12.1497667,14.4307979 L13.8796,14.6460225 C14.2711,14.6946003 14.5486,15.0478189 14.4992667,15.4346302 C14.4501,15.8216063 14.0924333,16.0954536 13.7011,16.0470404 L12.6801,15.9199147 L12.5536,16.9128787 C12.5081,17.2698847 12.2004333,17.5308877 11.8456,17.5308877 C11.8157667,17.5308877 11.7857667,17.5289117 11.7554333,17.5251243 C11.3639333,17.4763817 11.0864333,17.1233278 11.1356,16.7365165 M15.8707667,17.8007829 C15.7734333,18.1787021 15.3844333,18.407265 15.0021,18.310768 L14.0047667,18.0601392 L13.7549333,19.0300494 C13.6727667,19.3495105 13.3821,19.5621003 13.0631,19.5621003 C13.0047667,19.5621003 12.9454333,19.5550195 12.8862667,19.5401991 C12.5037667,19.4440314 12.2727667,19.0596901 12.3701,18.681771 L12.7961,17.0276542 C12.8427667,16.8461871 12.9606,16.6905734 13.1236,16.5948997 C13.2864333,16.499226 13.4812667,16.4713967 13.6647667,16.5176692 L15.3544333,16.9425195 C15.7369333,17.0386871 15.9681,17.4228638 15.8707667,17.8007829 M16.9356,20.3162919 C16.7916,20.6793907 16.3771,20.8585524 16.0097667,20.7162769 L15.0516,20.345768 L14.6822667,21.2776392 C14.5719333,21.556262 14.3022667,21.7265314 14.0167667,21.7265314 C13.9301,21.7265314 13.8419333,21.7108877 13.7564333,21.6777889 C13.3889333,21.5356781 13.2076,21.1261422 13.3514333,20.7628787 L13.9812667,19.1736422 C14.0502667,18.999256 14.1867667,18.8591213 14.3604333,18.7840314 C14.5339333,18.7091063 14.7306,18.7053189 14.9071,18.7734925 L16.5307667,19.4015464 C16.8981,19.5436572 17.0794333,19.9531931 16.9356,20.3162919 M17.6774333,22.9424596 C17.4892667,23.2851392 17.0552667,23.412265 16.7087667,23.2263518 L15.8042667,22.741726 L15.3212667,23.621232 C15.1917667,23.8570404 14.9461,23.9909177 14.6924333,23.9909177 C14.5772667,23.9909177 14.4606,23.963253 14.3524333,23.9052889 C14.0054333,23.7193757 13.8769333,23.290738 14.0651,22.9480584 L14.8887667,21.447744 C15.0769333,21.1050644 15.5107667,20.9779386 15.8576,21.1638518 L17.3901,21.985229 C17.7371,22.1713069 17.8657667,22.5997799 17.6774333,22.9424596 M18.0851,25.639271 C17.8556,25.9564266 17.4092667,26.0293757 17.0882667,25.8026243 L16.2514333,25.2111272 L15.6619333,26.0250943 C15.5224333,26.2175943 15.3029333,26.3203488 15.0802667,26.3203488 C14.9362667,26.3203488 14.7911,26.2775344 14.6651,26.1884476 C14.3441,25.9615314 14.2701,25.5205434 14.4997667,25.2033877 L15.5049333,23.8153787 C15.7346,23.4982231 16.1809333,23.4251093 16.5019333,23.6518608 L17.9197667,24.6542111 C18.2407667,24.8811272 18.3149333,25.3221153 18.0851,25.639271 M22.9379333,7.04087275 C20.2552667,8.53262425 12.6949333,12.8250943 12.6949333,12.8250943 C12.8329333,13.0034326 12.8884333,13.2474746 12.7986,13.5027141 C12.7009333,13.7806781 12.4256,13.9593458 12.1277667,13.9593458 L12.1267667,13.9593458 L11.0979333,13.9580284 L11.0966,14.958732 C11.0961,15.3483428 10.7762667,15.6638518 10.3819333,15.6638518 L10.3811,15.6638518 C9.9866,15.6638518 9.66693333,15.3475195 9.66743333,14.9579087 L9.66793333,14.5518308 L8.50626667,15.2146302 C7.06426667,16.0371602 6.1761,17.557235 6.1761,19.2021302 L6.1761,35.870753 C6.1761,37.5156482 7.06426667,39.0357231 8.50626667,39.858253 L8.95943333,40.1167859 L11.4462667,39.9144057 C11.7192667,39.8925045 11.9879333,40.0255584 12.1307667,40.2758578 C12.1822667,40.3660973 12.2094333,40.4678638 12.2181,40.5712769 L12.3409333,42.0455734 C12.3409333,42.0455734 20.1967667,46.5065015 22.9377667,48.0315165 C23.3521,48.2618907 23.8637667,47.9658129 23.8637667,47.4963368 L23.8637667,38.8937769 L21.6889333,38.8937769 L21.6889333,37.9436272 C21.6889333,36.7731482 22.6492667,35.8243159 23.8337667,35.8243159 L23.8637667,35.8243159 L23.8637667,33.9824746 L21.6889333,33.9824746 L21.6889333,33.0323249 C21.6889333,31.8616811 22.6492667,30.9130135 23.8337667,30.9130135 L23.8637667,30.9130135 L23.8637667,29.0711722 L21.6889333,29.0711722 L21.6889333,28.1208578 C21.6889333,26.9503787 22.6492667,26.0015464 23.8337667,26.0015464 L23.8637667,26.0015464 L23.8637667,24.1598698 L21.6889333,24.1598698 L21.6889333,23.2093907 C21.6889333,22.0390763 22.6492667,21.090244 23.8337667,21.090244 L23.8637667,21.090244 L23.8637667,19.2484027 L21.6889333,19.2484027 L21.6889333,18.2980883 C21.6889333,17.1276093 22.6492667,16.1789416 23.8337667,16.1789416 L23.8637667,16.1789416 L23.8637667,7.57621707 C23.8637667,7.10657635 23.3521,6.81066317 22.9379333,7.04087275" id="Fill-9" fill="#1A1A1A"></path>
            <g id="Group-13" transform="translate(0.000000, 0.072784)">
                <mask id="mask-2" fill="white">
                    <use xlink:href="#path-1"></use>
                </mask>
                <g id="Clip-12"></g>
                <path d="M47.8239667,35.7978204 C47.8239667,38.5308593 46.3358,41.0773263 43.9404667,42.4437635 L41.8459667,43.6384491 C41.8366333,43.6438832 41.8273,43.649482 41.8176333,43.6547515 L29.3301333,50.7780749 C28.1324667,51.4611287 26.7894667,51.8028204 25.4466333,51.8028204 C24.1036333,51.8028204 22.7608,51.4611287 21.5631333,50.7780749 L6.9528,42.4437635 C4.5573,41.0773263 3.0693,38.5308593 3.0693,35.7978204 L3.0693,19.1293623 C3.0693,16.396488 4.5573,13.8498563 6.9528,12.4834192 L21.5631333,4.14927246 C23.9584667,2.78283533 26.9348,2.78283533 29.3301333,4.14927246 L41.8266333,11.2777006 C41.8381333,11.2841228 41.8496333,11.2907096 41.8611333,11.2974611 L43.9404667,12.4834192 C46.3358,13.8498563 47.8239667,16.396488 47.8239667,19.1293623 L47.8239667,35.7978204 Z M45.4751333,9.8572515 L30.8646333,1.52294012 C29.2234667,0.586787425 27.3498,0.0917874251 25.4466333,0.0917874251 C23.5433,0.0917874251 21.6698,0.586787425 20.0284667,1.52294012 L5.41813333,9.8572515 C2.07613333,11.7636437 -3.33333333e-05,15.3165778 -3.33333333e-05,19.1293623 L-3.33333333e-05,35.797985 C-3.33333333e-05,39.6107695 2.07613333,43.1635389 5.41813333,45.0699311 L20.0284667,53.4042425 C21.6696333,54.3403952 23.5431333,54.8352305 25.4466333,54.8352305 C27.3498,54.8352305 29.2234667,54.3403952 30.8648,53.4042425 L45.4749667,45.0699311 C48.8169667,43.1635389 50.8931333,39.6107695 50.8931333,35.797985 L50.8931333,19.1293623 C50.8931333,15.3165778 48.8169667,11.7636437 45.4751333,9.8572515 Z" id="Fill-11" fill="#1A1A1A" mask="url(#mask-2)"></path>
            </g>
            <path d="M130.683917,32.5143039 C129.934417,32.8452919 129.078417,33.122762 128.11525,33.3472081 C127.152083,33.5719835 126.09475,33.6841243 124.944417,33.6841243 C122.75025,33.6841243 121.06475,33.1556961 119.88775,32.0981811 C118.709917,31.0411602 118.121583,29.203271 118.121583,26.5861602 C118.121583,21.9337201 119.53975,19.6070883 122.375917,19.6070883 C123.339417,19.6070883 124.06175,19.9043189 124.54325,20.499274 C125.024917,21.0938997 125.26575,21.9465644 125.26575,23.0569386 C125.26575,23.3806811 125.57075,23.6774177 125.903417,23.6774177 L133.814417,23.6774177 L133.814417,13.0965045 C133.814417,12.6994835 133.48875,12.3775524 133.086917,12.3775524 L126.710583,12.3775524 L126.710583,13.5002769 C126.201917,13.1831213 125.506417,12.8460404 124.623583,12.4890344 C123.74075,12.1321931 122.496417,11.9538548 120.890917,11.9538548 C118.964583,11.9538548 117.204917,12.3106961 115.61325,13.0245434 C114.021083,13.738226 112.656417,14.7631362 111.51975,16.0977919 C110.381917,17.4327769 109.499083,19.0388099 108.87075,20.9155614 C108.42375,22.249229 108.000417,23.6910853 107.87125,25.2378368 L93.3109167,25.2378368 L93.3109167,28.7533907 C93.3109167,30.6444686 94.86225,32.1773877 96.77625,32.1773877 L97.2674167,32.1773877 L97.2674167,33.1104117 L97.2674167,34.4771781 C97.2135833,34.5038548 96.9664167,34.5433757 96.5249167,34.596235 C96.08325,34.6495883 95.6080833,34.6754416 95.1000833,34.6754416 C94.4039167,34.6754416 93.72875,34.5502919 93.07325,34.2988398 C92.41725,34.0478817 91.8290833,33.6248428 91.3074167,33.0298877 C90.7855833,32.4350973 90.3704167,31.6557111 90.06325,30.690247 C89.75525,29.7256063 89.60175,28.529274 89.6015833,27.1015793 C89.60175,25.9913698 89.70825,24.9738698 89.9229167,24.048256 C90.1365833,23.1231362 90.45075,22.3233308 90.8659167,21.6493338 C91.2804167,20.9750075 91.79525,20.4464147 92.4110833,20.0628967 C93.02625,19.6802021 93.72175,19.4880314 94.4980833,19.4880314 C95.5144167,19.4880314 96.30425,19.7524925 96.8660833,20.2810853 C97.4279167,20.8103368 97.70875,21.4576572 97.70875,22.2241991 L97.70875,22.9584656 C97.70875,23.3554865 98.0345833,23.6774177 98.43625,23.6774177 L106.498417,23.6774177 L106.498417,13.0965045 C106.498417,12.6994835 106.17275,12.3775524 105.77075,12.3775524 L99.3945833,12.3775524 L99.3945833,13.5399626 C98.6450833,13.0640644 97.68175,12.6812051 96.50475,12.3900674 C95.3270833,12.0994237 94.1770833,11.9538548 93.05325,11.9538548 C90.9660833,11.9538548 89.08625,12.3243638 87.4144167,13.0640644 C85.7419167,13.8044237 84.31025,14.8355913 83.1199167,16.1570734 C81.9290833,17.4793787 81.0129167,19.0784955 80.3705833,20.955247 C79.7285833,22.8326572 79.4074167,24.8944985 79.4074167,27.1414296 C79.4074167,27.3810254 79.4124167,27.6181512 79.4195833,27.8541243 C79.3915833,27.8081811 79.3650833,27.7620734 79.3360833,27.7162949 C78.78725,26.8573728 78.00475,26.0774925 76.9880833,25.3766542 C75.9709167,24.6766392 74.6200833,24.1274626 72.9345833,23.7311003 L65.4694167,21.946729 C64.9879167,21.8146632 64.6730833,21.6493338 64.5264167,21.4509057 C64.3789167,21.2526422 64.3055833,21.0481213 64.3055833,20.8363548 C64.3055833,20.4663398 64.4924167,20.1094985 64.8674167,19.7656662 C65.2419167,19.4223278 65.99125,19.2500823 67.1149167,19.2500823 C68.3190833,19.2500823 69.2684167,19.4949476 69.9645833,19.9836901 C70.4655833,20.3364147 70.78425,20.7199326 70.92325,21.1340793 C71.00525,21.3787799 71.2379167,21.5424626 71.4989167,21.5424626 L79.22775,21.5424626 L79.22775,13.0965045 C79.22775,12.6994835 78.9019167,12.3775524 78.5000833,12.3775524 L72.1319167,12.3775524 L72.1319167,13.5399626 C71.46275,13.1174177 70.5865833,12.7605763 69.5030833,12.469274 C68.4194167,12.1786302 67.1149167,12.0330614 65.5899167,12.0330614 C64.3055833,12.0330614 63.02125,12.2183159 61.7369167,12.5883308 C60.4525833,12.9586751 59.3019167,13.5200374 58.28525,14.2735704 C57.26825,15.0269386 56.4454167,15.9924027 55.8170833,17.1683159 C55.1880833,18.3448877 54.8739167,19.7259805 54.8739167,21.3120883 C54.8739167,25.6480314 57.1214167,28.3841991 61.6164167,29.5204266 L69.24225,31.4635404 C70.41925,31.7808608 71.0079167,32.3626422 71.0079167,33.2083907 C71.0079167,33.6581063 70.80725,34.0149476 70.4060833,34.2790793 C70.00475,34.5433757 69.3624167,34.6754416 68.4795833,34.6754416 C66.7939167,34.6754416 65.50275,34.4047231 64.6065833,33.8626272 C63.70825,33.3202021 63.2604167,32.6644835 63.2620833,31.8956362 C63.26275,31.5620135 62.9734167,31.2977171 62.63575,31.2977171 L54.79375,31.2977171 L54.79375,41.01625 C54.79375,41.416729 55.1220833,41.7411302 55.5274167,41.7411302 L62.3790833,41.7411302 L62.3790833,40.7030464 C63.20825,41.1260853 64.17825,41.4761751 65.2889167,41.7536452 C66.3989167,42.0312799 67.8104167,42.1700973 69.5230833,42.1700973 C70.61975,42.1700973 71.8170833,42.0510404 73.1150833,41.8134207 C74.4125833,41.5753069 75.6235833,41.1260853 76.74725,40.4649326 C77.8710833,39.8044386 78.80725,38.8855763 79.5565833,37.7090045 C80.1624167,36.7577021 80.52325,35.5676272 80.6390833,34.1400973 C81.2185833,35.584753 82.01875,36.8604566 83.0395833,37.9667141 C84.2839167,39.3150374 85.8620833,40.3727171 87.7755833,41.1390943 C89.6880833,41.9054716 91.98275,42.2889895 94.6585833,42.2889895 C96.3444167,42.2889895 97.89575,42.1700973 99.31425,41.9319835 C100.732083,41.6943638 101.97625,41.4234805 103.04675,41.1193338 C104.116583,40.8156811 104.993083,40.5181213 105.675583,40.2269835 C106.35775,39.9363398 106.805417,39.738241 107.02025,39.6323578 L107.02025,32.1773877 L111.727917,32.1773877 L108.777083,33.1173278 C108.903583,33.5581512 108.991417,33.7956063 108.991417,33.7956063 C109.639083,35.5488548 110.57975,37.0600374 111.820583,38.3235554 C114.415583,40.9675075 118.228417,42.2889895 123.258917,42.2889895 C124.864417,42.2889895 126.26925,42.1961153 127.473083,42.0115195 C128.67725,41.826265 129.706917,41.6149925 130.563417,41.3770434 C131.419417,41.1390943 132.114917,40.8950524 132.650583,40.6434356 C133.185417,40.3926422 133.58675,40.2011302 133.854417,40.0684057 L133.854417,30.5911153 C133.55975,30.8290644 133.145417,31.1264596 132.610417,31.4833009 C132.074917,31.8401422 131.432583,32.1841392 130.683917,32.5143039" id="Fill-14" fill="#1A1A1A"></path>
            <path d="M135.066567,13.5508144 L135.066567,12.6912335 L134.8964,12.6912335 L134.8964,12.8987186 C134.8739,12.9092575 134.848067,12.9171617 134.819567,12.9224311 C134.7909,12.9277006 134.7639,12.9303353 134.738567,12.9303353 C134.713233,12.9303353 134.6859,12.9277006 134.656567,12.9224311 C134.627233,12.9171617 134.601233,12.9092575 134.578567,12.8987186 L134.578567,12.3968024 L135.954567,12.3968024 L135.954567,12.8987186 C135.931733,12.9092575 135.906233,12.9171617 135.877567,12.9224311 C135.848733,12.9277006 135.8219,12.9303353 135.796567,12.9303353 C135.771233,12.9303353 135.743733,12.9277006 135.714567,12.9224311 C135.685233,12.9171617 135.659233,12.9092575 135.636567,12.8987186 L135.636567,12.6912335 L135.466567,12.6912335 L135.466567,13.5508144 L135.594567,13.5508144 C135.602567,13.5732096 135.608567,13.5969222 135.612567,13.6219521 C135.616567,13.646982 135.618567,13.6708593 135.618567,13.6930898 C135.618567,13.715485 135.616567,13.7395269 135.612567,13.7652156 C135.608567,13.7909042 135.602567,13.8149461 135.594567,13.8373413 L134.9384,13.8373413 C134.930567,13.8149461 134.9244,13.7909042 134.920567,13.7652156 C134.916567,13.7395269 134.914567,13.715485 134.914567,13.6930898 C134.914567,13.6708593 134.916567,13.646982 134.920567,13.6219521 C134.9244,13.5969222 134.930567,13.5732096 134.9384,13.5508144 L135.066567,13.5508144 Z" id="Fill-16" fill="#1A1A1A"></path>
            <path d="M136.236483,13.5508144 L136.236483,12.6833293 L136.114483,12.6833293 C136.106483,12.6609341 136.100483,12.6372216 136.096483,12.6121916 C136.092483,12.5871617 136.090483,12.5634491 136.090483,12.5410539 C136.090483,12.5186587 136.092483,12.4946168 136.096483,12.4689281 C136.100483,12.4432395 136.106483,12.4191976 136.114483,12.3968024 L136.736483,12.3968024 L136.986483,13.4026108 L137.230483,12.3968024 L137.862483,12.3968024 C137.870483,12.4191976 137.876483,12.4432395 137.880483,12.4689281 C137.884483,12.4946168 137.886483,12.5186587 137.886483,12.5410539 C137.886483,12.5634491 137.884483,12.5871617 137.880483,12.6121916 C137.876483,12.6372216 137.870483,12.6609341 137.862483,12.6833293 L137.740483,12.6833293 L137.740483,13.5508144 L137.862483,13.5508144 C137.870483,13.5732096 137.876483,13.5969222 137.880483,13.6219521 C137.884483,13.646982 137.886483,13.6708593 137.886483,13.6930898 C137.886483,13.715485 137.884483,13.7395269 137.880483,13.7652156 C137.876483,13.7909042 137.870483,13.8149461 137.862483,13.8373413 L137.350483,13.8373413 L137.350483,12.9441677 L137.136483,13.8057246 L136.820483,13.8057246 L136.608483,12.9441677 L136.608483,13.8373413 L136.114483,13.8373413 C136.106483,13.8149461 136.100483,13.7909042 136.096483,13.7652156 C136.092483,13.7395269 136.090483,13.715485 136.090483,13.6930898 C136.090483,13.6708593 136.092483,13.646982 136.096483,13.6219521 C136.100483,13.5969222 136.106483,13.5732096 136.114483,13.5508144 L136.236483,13.5508144 Z" id="Fill-18" fill="#1A1A1A"></path>
        </g>
    </g>
</svg>